<svg xmlns="http://www.w3.org/2000/svg" viewBox="0 0 660 510" role="img" aria-label="Window and driveway vertical section"><rect x="0.000" y="0.000" width="660.000" height="510.000" fill="#faf9f4" stroke="none" stroke-width="1"/><text x="25" y="34" font-size="23" fill="#243b35" text-anchor="start" font-family="system-ui,sans-serif">Window / driveway section</text><text x="25" y="58" font-size="12" fill="#243b35" text-anchor="start" font-family="system-ui,sans-serif">Owner measurements + estimates · inches above slab</text><rect x="35.000" y="450.000" width="300.000" height="10.000" fill="#8a9184" stroke="none" stroke-width="1"/><rect x="300.000" y="239.400" width="36.000" height="210.600" fill="#a6aa9a" stroke="none" stroke-width="1"/><rect x="300.000" y="149.400" width="36.000" height="3.600" fill="#a6aa9a" stroke="none" stroke-width="1"/><polygon points="275,252.0 325,252.0 325,239.4 275,246.6" fill="#d0d2bf" stroke="#7f897b"/><rect x="316.000" y="153.000" width="6.000" height="86.400" fill="#75a4b3" stroke="none" stroke-width="1"/><rect x="340.000" y="246.600" width="285.000" height="203.400" fill="#ded8ca" stroke="none" stroke-width="1"/><rect x="340.000" y="246.600" width="285.000" height="7.000" fill="#555e56" stroke="none" stroke-width="1"/><rect x="35.000" y="113.400" width="301.000" height="36.000" fill="#aa9470" stroke="none" stroke-width="1"/><line x1="48" y1="450.0" x2="248" y2="450.0" stroke="#5b7766" stroke-width="1" stroke-dasharray="4 4"/><text x="48" y="443.0" font-size="12" fill="#243b35" text-anchor="start" font-family="system-ui,sans-serif">Basement floor · 0″</text><line x1="405" y1="246.6" x2="605" y2="246.6" stroke="#5b7766" stroke-width="1" stroke-dasharray="4 4"/><text x="405" y="239.6" font-size="12" fill="#243b35" text-anchor="start" font-family="system-ui,sans-serif">Driveway · ~56.5″</text><line x1="50" y1="239.4" x2="250" y2="239.4" stroke="#5b7766" stroke-width="1" stroke-dasharray="4 4"/><text x="50" y="232.4" font-size="12" fill="#243b35" text-anchor="start" font-family="system-ui,sans-serif">Frame · ~58.5″</text><line x1="50" y1="252.0" x2="250" y2="252.0" stroke="#5b7766" stroke-width="1" stroke-dasharray="4 4"/><text x="50" y="245.0" font-size="12" fill="#243b35" text-anchor="start" font-family="system-ui,sans-serif">Ledge underside · ~55″</text><line x1="405" y1="234.0" x2="605" y2="234.0" stroke="#5b7766" stroke-width="1" stroke-dasharray="4 4"/><text x="405" y="227.0" font-size="12" fill="#243b35" text-anchor="start" font-family="system-ui,sans-serif">Glass bottom · ~60″</text><line x1="50" y1="153.0" x2="250" y2="153.0" stroke="#5b7766" stroke-width="1" stroke-dasharray="4 4"/><text x="50" y="146.0" font-size="12" fill="#243b35" text-anchor="start" font-family="system-ui,sans-serif">Window head · ~82.5″</text><line x1="405" y1="149.39999999999998" x2="605" y2="149.39999999999998" stroke="#5b7766" stroke-width="1" stroke-dasharray="4 4"/><text x="405" y="142.39999999999998" font-size="12" fill="#243b35" text-anchor="start" font-family="system-ui,sans-serif">Joists · 83.5″</text><line x1="405" y1="113.39999999999998" x2="605" y2="113.39999999999998" stroke="#5b7766" stroke-width="1" stroke-dasharray="4 4"/><text x="405" y="106.39999999999998" font-size="12" fill="#243b35" text-anchor="start" font-family="system-ui,sans-serif">Kitchen floor · ~93.5″</text><text x="405" y="204.6" font-size="17" fill="#243b35" text-anchor="start" font-family="system-ui,sans-serif">~2″ above paving</text><text x="35" y="489" font-size="14" fill="#243b35" text-anchor="start" font-family="system-ui,sans-serif">Window height ~24″ · head clears joists by 1″</text></svg>