<svg xmlns="http://www.w3.org/2000/svg" viewBox="-5 -43 410 365" role="img" aria-label="Measured unfinished basement floor plan"><rect x="-5" y="-43" width="410" height="365" fill="#faf9f4"/><text x="12" y="-15" font-size="10" fill="#243b35" text-anchor="start" font-family="system-ui,sans-serif">Existing basement · October 8 measurements</text><text x="12" y="-3" font-size="4.6" fill="#243b35" text-anchor="start" font-family="system-ui,sans-serif">October 9 post gaps applied; beam/chimney registration and equipment offsets remain inferred.</text><line x1="12" y1="-29" x2="301" y2="-29" stroke="#334d43" stroke-width="0.7" /><line x1="12" y1="-32" x2="12" y2="-25" stroke="#334d43" stroke-width="0.7" /><line x1="301" y1="-32" x2="301" y2="-25" stroke="#334d43" stroke-width="0.7" /><text x="156.5" y="-33" font-size="5" fill="#243b35" text-anchor="middle" font-family="system-ui,sans-serif">24′1″ inside foundation</text><text x="12" y="295" font-size="4.6" fill="#243b35" text-anchor="start" font-family="system-ui,sans-serif">Bulkhead: ~49″ doorway-to-wall depth; 49″ stair width; 32″ connecting door.</text><text x="12" y="304" font-size="4.6" fill="#243b35" text-anchor="start" font-family="system-ui,sans-serif">Top ledge and tread overlap are estimated from the owner clarification and photos.</text><g id="existing-plan"><rect x="12.000" y="12.000" width="289.000" height="265.000" fill="#f2f1e9" stroke="#334d43" stroke-width="2"/><rect x="313.000" y="127.500" width="49.000" height="145.000" fill="#e8e7dc" stroke="#334d43" stroke-width="2"/><line x1="301" y1="160" x2="313" y2="160" stroke="#334d43" stroke-width="2" /><line x1="301" y1="192" x2="313" y2="192" stroke="#334d43" stroke-width="2" /><rect x="300.000" y="161.000" width="14.000" height="30.000" fill="#f2f1e9" stroke="none" stroke-width="1"/><rect x="151.375" y="94.000" width="25.250" height="56.000" fill="#b6ab92" stroke="#6c6556" stroke-width="1"/><text x="164" y="122" font-size="4" fill="#243b35" text-anchor="middle" font-family="system-ui,sans-serif">CHIMNEY</text><line x1="156" y1="12" x2="156" y2="277" stroke="#838879" stroke-width="1.5" stroke-dasharray="4 3"/><circle cx="156" cy="85.6875" r="1.8125" fill="#334d43"/><circle cx="156" cy="158.3125" r="1.8125" fill="#334d43"/><circle cx="156" cy="214" r="1.8125" fill="#334d43"/><rect x="56.000" y="12.000" width="95.000" height="36.000" fill="#cfc3a7" stroke="#6b614c" stroke-width="0.7"/><line x1="65.5" y1="12" x2="65.5" y2="48" stroke="#6b614c" stroke-width="0.45" /><line x1="75.0" y1="12" x2="75.0" y2="48" stroke="#6b614c" stroke-width="0.45" /><line x1="84.5" y1="12" x2="84.5" y2="48" stroke="#6b614c" stroke-width="0.45" /><line x1="94.0" y1="12" x2="94.0" y2="48" stroke="#6b614c" stroke-width="0.45" /><line x1="103.5" y1="12" x2="103.5" y2="48" stroke="#6b614c" stroke-width="0.45" /><line x1="113.0" y1="12" x2="113.0" y2="48" stroke="#6b614c" stroke-width="0.45" /><line x1="122.5" y1="12" x2="122.5" y2="48" stroke="#6b614c" stroke-width="0.45" /><line x1="132.0" y1="12" x2="132.0" y2="48" stroke="#6b614c" stroke-width="0.45" /><line x1="141.5" y1="12" x2="141.5" y2="48" stroke="#6b614c" stroke-width="0.45" /><text x="103.5" y="57" font-size="4.2" fill="#243b35" text-anchor="middle" font-family="system-ui,sans-serif">10 treads · 9½″ surfaces</text><rect x="187.500" y="18.000" width="27.000" height="28.000" fill="#fff" stroke="#65796b" stroke-width="0.7"/><text x="201" y="33" font-size="3.5" fill="#243b35" text-anchor="middle" font-family="system-ui,sans-serif">DRYER</text><rect x="216.500" y="18.000" width="27.000" height="28.000" fill="#fff" stroke="#65796b" stroke-width="0.7"/><text x="230" y="33" font-size="3.5" fill="#243b35" text-anchor="middle" font-family="system-ui,sans-serif">WASHER</text><rect x="249.500" y="19.500" width="29.000" height="25.000" fill="#bac2b0" stroke="#65796b" stroke-width="0.7"/><text x="264" y="33" font-size="4" fill="#243b35" text-anchor="middle" font-family="system-ui,sans-serif">SINK</text><circle cx="128" cy="122" r="11.5" fill="#eee" stroke="#65796b"/><text x="128" y="123" font-size="4" fill="#243b35" text-anchor="middle" font-family="system-ui,sans-serif">TANK</text><rect x="280.500" y="30.000" width="19.500" height="40.000" fill="#bfc7b6" stroke="#52634c" stroke-width="0.8"/><text x="290.25" y="51" font-size="4" fill="#243b35" text-anchor="middle" font-family="system-ui,sans-serif">R1</text><rect x="280.500" y="72.000" width="19.500" height="40.000" fill="#bfc7b6" stroke="#52634c" stroke-width="0.8"/><text x="290.25" y="93" font-size="4" fill="#243b35" text-anchor="middle" font-family="system-ui,sans-serif">R2</text><rect x="280.500" y="114.000" width="19.500" height="40.000" fill="#bfc7b6" stroke="#52634c" stroke-width="0.8"/><text x="290.25" y="135" font-size="4" fill="#243b35" text-anchor="middle" font-family="system-ui,sans-serif">R3</text><rect x="280.500" y="231.000" width="19.500" height="40.000" fill="#bfc7b6" stroke="#52634c" stroke-width="0.8"/><text x="290.25" y="252" font-size="4" fill="#243b35" text-anchor="middle" font-family="system-ui,sans-serif">R4</text><rect x="157.000" y="35.000" width="26.000" height="18.000" fill="#bfc7b6" stroke="#52634c" stroke-width="0.8"/><text x="170" y="45" font-size="3.5" fill="#243b35" text-anchor="middle" font-family="system-ui,sans-serif">SMALL</text><rect x="14.000" y="12.000" width="16.000" height="4.000" fill="#667772" stroke="none" stroke-width="1"/><text x="22" y="25" font-size="3.2" fill="#243b35" text-anchor="start" font-family="system-ui,sans-serif">PANEL</text><text x="18" y="126" font-size="3.5" fill="#243b35" text-anchor="start" font-family="system-ui,sans-serif">METERS</text><line x1="28.5" y1="12" x2="64.5" y2="12" stroke="#67a4b9" stroke-width="3" /><line x1="231.0" y1="12" x2="267.0" y2="12" stroke="#67a4b9" stroke-width="3" /><line x1="12" y1="78.0" x2="12" y2="114.0" stroke="#67a4b9" stroke-width="3" /><line x1="232.0" y1="277" x2="268.0" y2="277" stroke="#67a4b9" stroke-width="3" /><rect x="310.000" y="151.500" width="48.000" height="49.000" fill="#cfc3a7" stroke="#6b614c" stroke-width="0.7"/><line x1="318" y1="151.5" x2="318" y2="200.5" stroke="#6b614c" stroke-width="0.45" /><line x1="326" y1="151.5" x2="326" y2="200.5" stroke="#6b614c" stroke-width="0.45" /><line x1="334" y1="151.5" x2="334" y2="200.5" stroke="#6b614c" stroke-width="0.45" /><line x1="342" y1="151.5" x2="342" y2="200.5" stroke="#6b614c" stroke-width="0.45" /><line x1="350" y1="151.5" x2="350" y2="200.5" stroke="#6b614c" stroke-width="0.45" /><rect x="358.000" y="151.500" width="4.000" height="49.000" fill="#a9916b" stroke="none" stroke-width="1"/><text x="337.5" y="142" font-size="3.8" fill="#243b35" text-anchor="middle" font-family="system-ui,sans-serif">~2′ RECESS</text><text x="337.5" y="233" font-size="3.8" fill="#243b35" text-anchor="middle" font-family="system-ui,sans-serif">~6′ SIDE AREA</text><text x="337.5" y="242" font-size="3.2" fill="#243b35" text-anchor="middle" font-family="system-ui,sans-serif">toward mini-splits</text><text x="337.5" y="179" font-size="3.8" fill="#243b35" text-anchor="middle" font-family="system-ui,sans-serif">6 TREADS</text><text x="68" y="193" font-size="7" fill="#243b35" text-anchor="start" font-family="system-ui,sans-serif">UNFINISHED BASEMENT</text><text x="68" y="205" font-size="6" fill="#243b35" text-anchor="start" font-family="system-ui,sans-serif">24′1″ × 22′1″ inside</text><text x="68" y="217" font-size="5" fill="#243b35" text-anchor="start" font-family="system-ui,sans-serif">Joists 6′11½″ · beam 6′4¼″</text></g><g id="proposed-plan" opacity="0" pointer-events="none"><line x1="180.625" y1="158.3125" x2="180.625" y2="161.0" stroke="#bb6c24" stroke-width="4.0" /><line x1="6.0" y1="6.0" x2="307.0" y2="6.0" stroke="#bb6c24" stroke-width="12.0" /><line x1="307.0" y1="6.0" x2="307.0" y2="154.0" stroke="#bb6c24" stroke-width="12.0" /><line x1="307.0" y1="198.0" x2="307.0" y2="283.0" stroke="#bb6c24" stroke-width="12.0" /><line x1="307.0" y1="283.0" x2="6.0" y2="283.0" stroke="#bb6c24" stroke-width="12.0" /><line x1="6.0" y1="283.0" x2="6.0" y2="6.0" stroke="#bb6c24" stroke-width="12.0" /><line x1="307.0" y1="154.0" x2="307.0" y2="198.0" stroke="#bb6c24" stroke-width="12.0" /><line x1="156.0" y1="12.0" x2="156.0" y2="85.6875" stroke="#bb6c24" stroke-width="4.0" /><line x1="156.0" y1="12.0" x2="270.0" y2="12.0" stroke="#bb6c24" stroke-width="4.0" /><line x1="270.0" y1="12.0" x2="270.0" y2="36.0" stroke="#bb6c24" stroke-width="4.0" /><line x1="270.0" y1="36.0" x2="301.0" y2="36.0" stroke="#bb6c24" stroke-width="4.0" /><line x1="301.0" y1="36.0" x2="301.0" y2="161.0" stroke="#bb6c24" stroke-width="4.0" /><line x1="182.625" y1="123.99999999999999" x2="268.0" y2="123.99999999999999" stroke="#bb6c24" stroke-width="4.0" /><line x1="147.375" y1="85.6875" x2="180.625" y2="85.6875" stroke="#bb6c24" stroke-width="4.0" /><line x1="180.625" y1="85.6875" x2="180.625" y2="158.3125" stroke="#bb6c24" stroke-width="4.0" /><line x1="180.625" y1="158.3125" x2="147.375" y2="158.3125" stroke="#bb6c24" stroke-width="4.0" /><line x1="147.375" y1="158.3125" x2="147.375" y2="85.6875" stroke="#bb6c24" stroke-width="4.0" /><line x1="180.625" y1="161.0" x2="237.0" y2="161.0" stroke="#bb6c24" stroke-width="4.0" /><line x1="237.0" y1="123.99999999999999" x2="237.0" y2="161.0" stroke="#bb6c24" stroke-width="4.0" /><line x1="237.0" y1="161.0" x2="301.0" y2="161.0" stroke="#bb6c24" stroke-width="4.0" /><line x1="12.0" y1="96.0" x2="30.0" y2="96.0" stroke="#bb6c24" stroke-width="4.0" /><line x1="30.0" y1="96.0" x2="30.0" y2="152.0" stroke="#bb6c24" stroke-width="4.0" /><line x1="30.0" y1="152.0" x2="12.0" y2="152.0" stroke="#bb6c24" stroke-width="4.0" /><line x1="268.0" y1="100.0" x2="301.0" y2="100.0" stroke="#bb6c24" stroke-width="4.0" /><line x1="268.0" y1="100.0" x2="268.0" y2="123.99999999999999" stroke="#bb6c24" stroke-width="4.0" /><line x1="156.0" y1="47.0" x2="156.0" y2="77.0" stroke="#fffaf1" stroke-width="4.5" /><line x1="198.0" y1="161.0" x2="228.0" y2="161.0" stroke="#fffaf1" stroke-width="4.5" /><line x1="254.0" y1="161.0" x2="284.0" y2="161.0" stroke="#fffaf1" stroke-width="4.5" /><line x1="307.0" y1="160.0" x2="307.0" y2="192.0" stroke="#fffaf1" stroke-width="12.5" /><line x1="30.0" y1="100.0" x2="30.0" y2="148.0" stroke="#fffaf1" stroke-width="4.5" /><text x="223" y="87" font-size="6" fill="#985319" text-anchor="middle" font-family="system-ui,sans-serif">PROPOSED BATH</text><text x="207" y="146" font-size="4" fill="#985319" text-anchor="middle" font-family="system-ui,sans-serif">CLOSET</text><text x="268" y="146" font-size="4" fill="#985319" text-anchor="middle" font-family="system-ui,sans-serif">UTILITY</text></g></svg>